<svg id="Layer_1" data-name="Layer 1" xmlns="http://www.w3.org/2000/svg" viewBox="0 0 400 300" data-imageid="reminder-note-two-color" imageName="Reminder Note" class="illustrations_image" style="width: 183px;"><path d="M154.11,57.68c-52.19,24.34-70.48,90.4-38,137.92,14.61,21.34,40.62,39.2,86.78,39.49C333,235.88,347.46,173,341.63,121.28,335.57,67.6,226.35,24,154.11,57.68Z" fill="#e6e6e6" opacity="0.3"/><polygon points="208.49 213.73 212.47 261.81 285.56 261.81 270.38 222.19 208.49 213.73" fill="#24285b"/><path d="M184.17,157.5s-23,40.37-2.76,54.89,37.11-17.87,37.11-17.87Z" fill="#f4a28c"/><path d="M184.34,157.4s-23,40.37-2.76,54.89,37.11-17.87,37.11-17.87Z" opacity="0.1"/><polygon points="249.74 69.04 253.4 94.37 235.28 94.88 240.19 70.92 249.74 69.04" fill="#f4a28c"/><path d="M238.89,76.12A11.89,11.89,0,0,0,245,73s-.61,6-7.53,11.5Z" fill="#ce8172" opacity="0.31"/><path d="M229.47,60.48s1.79,9.85,5.15,15.81a5,5,0,0,0,6.88,1.88c3-1.74,6.49-5,6.18-10.34l.58-9.22s.17-5.8-6.34-8.23S228.08,54.54,229.47,60.48Z" fill="#f4a28c"/><path d="M230.92,66.63l-1.68,4.45a1.61,1.61,0,0,0,1.63,2.17l3.88-.31Z" fill="#f4a28c"/><path d="M235.28,94.88l18.12-.51s41.83.52,48,35.86-31,92-31,92l-61.89-8.46s-5.48-34.18-7.75-64.16S203.31,100.9,235.28,94.88Z" fill="#6ca2b3" class="target-color"/><path d="M229.47,60.48h0a40.78,40.78,0,0,0-6-9.93,6,6,0,0,1-1-5.88c1.71-5.63,7.52,0,11.39-4.45s7.53-4.45,10.63-1,1.8,6.16,6.36,5.58,6.71,6.14,1.59,8.06S249.73,69,249.73,69l-3.83.76-.84-1.19a21.94,21.94,0,0,0-5.56-5.22c-1.05-.74-1.84-2.24-.79-5.33Z" fill="#24285b"/><path d="M199.47,114.29h.36a2.13,2.13,0,0,1,2.13,2.13v23.9a0,0,0,0,1,0,0h-4.61a0,0,0,0,1,0,0v-23.9A2.13,2.13,0,0,1,199.47,114.29Z" transform="translate(-9.03 15.42) rotate(-4.33)" fill="#24285b"/><polygon points="198.33 140.46 201.06 145.99 202.93 140.11 198.33 140.46" fill="#24285b"/><path d="M243.12,67.93s-.94-3.74,1.93-4.21,4.27,4.91.61,6.45Z" fill="#f4a28c"/><path d="M268.79,112.56s-21.81,6.53-21.73,37-5.86,52.22-15.79,48.72-26.51-10.75-26.51-10.75l3.73,26.21L246.76,219l19.52-14.43,20.77-42.63Z" opacity="0.1"/><path d="M187,135.47s-1.21-14.69,10.62-14.18S205.07,135.37,187,135.47Z" fill="#f4a28c"/><path d="M294.63,112.45c8,10.55,13.28,29.29,2.12,61.91l-37.95-9.21s.17-27.46,7.75-48.42A16.2,16.2,0,0,1,294.63,112.45Z" fill="#6ca2b3" class="target-color"/><rect x="186.24" y="129.77" width="21.53" height="43.91" transform="translate(-50.19 124.72) rotate(-31.37)" fill="#ffd200"/><rect x="186.24" y="129.77" width="21.53" height="43.91" transform="translate(-50.19 124.72) rotate(-31.37)" fill="#fff" opacity="0.63"/><polygon points="212.47 168.02 195.18 178.56 171.23 141.73 189.61 130.52 212.47 168.02" fill="#ffd200"/><polygon points="240.26 218.07 253.4 261.81 285.56 261.81 273.11 229.32 240.26 218.07" opacity="0.1"/><path d="M294.63,112.45c8,10.55,13.28,29.29,2.12,61.91l-37.95-9.21s.17-27.46,7.75-48.42A16.2,16.2,0,0,1,294.63,112.45Z" fill="#fff" opacity="0.44"/><path d="M294.62,173.84s-5.86,54.25-28.47,58.68c-12.72,2.49-73.95-56.81-73.95-56.81s-10.5.89-13.36-12.07,23.63,4.64,23.63,4.64,48.34,37.63,55.2,30.21,5.07-32.38,5.07-32.38Z" fill="#f4a28c"/><path d="M171.23,141.73s3.22,21.3-2.13,35.73l25.46-2.19s5.67-20-4.95-44.75Z" fill="#ffd200"/><path d="M171.23,141.73s3.22,21.3-2.13,35.73l25.46-2.19s5.67-20-4.95-44.75Z" opacity="0.1"/><path d="M230.78,95.86s-3.06-8.18,9.34-9.11,23.25-2.39,23.5,8.89C263.62,95.64,247,101.14,230.78,95.86Z" fill="#6ca2b3" class="target-color"/><path d="M230.78,95.86s-3.06-8.18,9.34-9.11,23.25-2.39,23.5,8.89C263.62,95.64,247,101.14,230.78,95.86Z" fill="#fff" opacity="0.44"/><circle cx="158.53" cy="73.23" r="29.12" fill="#c1c1c1"/><circle cx="158.53" cy="73.23" r="21.38" fill="#e6e6e6"/><polyline points="158.53 60.37 158.53 73.23 166.6 78.84" fill="none" stroke="#878787" stroke-linecap="round" stroke-linejoin="round" stroke-width="3"/><rect x="70.52" y="87.18" width="89.16" height="44.7" fill="#efefef"/><rect x="117.58" y="98.15" width="32.17" height="7.93" fill="#c1c1c1"/><rect x="117.58" y="112.56" width="32.17" height="7.93" fill="#c1c1c1" opacity="0.34"/><circle cx="95.96" cy="109.71" r="11.57" fill="#c1c1c1"/></svg>