<svg id="Layer_1" data-name="Layer 1" xmlns="http://www.w3.org/2000/svg" viewBox="0 0 400 300" data-imageid="user-status-two-color" imageName="User Status" class="illustrations_image" style="width: 155px;"><rect x="36.23" y="180" width="89.36" height="61.4" fill="#e6e6e6" opacity="0.45"/><rect x="153.24" y="180" width="89.36" height="61.4" fill="#e6e6e6" opacity="0.45"/><rect x="274.27" y="180" width="89.36" height="61.4" fill="#e6e6e6" opacity="0.45"/><circle cx="80.25" cy="112.19" r="52.22" fill="#e6e6e6" opacity="0.45"/><path d="M87.22,88.22s1.52,7.3.86,12.35a3.75,3.75,0,0,1-4.23,3.22c-2.54-.37-5.86-1.61-7.15-5.42l-3-6.2a6.69,6.69,0,0,1,2.09-7.45C79.63,81.22,86.52,83.73,87.22,88.22Z" fill="#f4a28c"/><polygon points="74.26 93.29 73.29 117.7 86.78 117.28 82.07 99.69 74.26 93.29" fill="#f4a28c"/><path d="M85.42,88.75a29.82,29.82,0,0,1-6.88.28,6.22,6.22,0,0,1,.8,6.77,5.05,5.05,0,0,1-5.83,2.73L72.5,89a7.6,7.6,0,0,1,3-7.17,26.83,26.83,0,0,1,3-1.93c2.61-1.42,6.84-.07,9.07-2.21a1.79,1.79,0,0,1,3,.83c.77,2.85.8,7.46-2.93,9.5A7,7,0,0,1,85.42,88.75Z" fill="#24285b"/><path d="M80.11,95.49s-.4-2.84-2.51-2.37S76,97.7,79,97.74Z" fill="#f4a28c"/><path d="M87.94,92.87l2.4,2.6a1.2,1.2,0,0,1-.52,2l-2.77.87Z" fill="#f4a28c"/><path d="M83.27,103.49a8.83,8.83,0,0,1-4.64-2.07s.71,4.42,6.11,8.22Z" fill="#ce8172" opacity="0.31"/><path d="M45.07,150.78S44.28,118,79.63,116.3,114,152.22,114,152.22,80.69,182.62,45.07,150.78Z" fill="#6ca2b3" class="target-color"/><circle cx="113.69" cy="149.45" r="17.52" fill="#ffd200"/><circle cx="199.55" cy="112.19" r="52.22" fill="#e6e6e6" opacity="0.45"/><path d="M206.51,88.22s1.52,7.3.86,12.35a3.74,3.74,0,0,1-4.22,3.22c-2.54-.37-5.87-1.61-7.16-5.42l-3-6.2a6.69,6.69,0,0,1,2.09-7.45C198.92,81.22,205.81,83.73,206.51,88.22Z" fill="#f4a28c"/><polygon points="193.55 93.29 192.58 117.7 206.07 117.28 201.36 99.69 193.55 93.29" fill="#f4a28c"/><path d="M204.71,88.75a29.82,29.82,0,0,1-6.88.28,6.22,6.22,0,0,1,.8,6.77,5.05,5.05,0,0,1-5.83,2.73l-1-9.53a7.6,7.6,0,0,1,3-7.17,26.07,26.07,0,0,1,3-1.93c2.6-1.42,6.83-.07,9.07-2.21a1.79,1.79,0,0,1,3,.83c.78,2.85.8,7.46-2.93,9.5A7,7,0,0,1,204.71,88.75Z" fill="#24285b"/><path d="M199.4,95.49s-.4-2.84-2.51-2.37-1.57,4.58,1.38,4.62Z" fill="#f4a28c"/><path d="M207.23,92.87l2.4,2.6a1.2,1.2,0,0,1-.52,2l-2.77.87Z" fill="#f4a28c"/><path d="M202.56,103.49a8.86,8.86,0,0,1-4.64-2.07s.71,4.42,6.11,8.22Z" fill="#ce8172" opacity="0.31"/><path d="M164.37,150.78s-.8-32.78,34.55-34.48,34.41,35.92,34.41,35.92S200,182.62,164.37,150.78Z" fill="#6ca2b3" class="target-color"/><circle cx="232.98" cy="149.45" r="17.52" fill="#ffd200"/><circle cx="318.42" cy="112.19" r="52.22" fill="#e6e6e6" opacity="0.45"/><path d="M325.39,88.22s1.51,7.3.85,12.35a3.74,3.74,0,0,1-4.22,3.22c-2.54-.37-5.87-1.61-7.15-5.42l-3-6.2A6.7,6.7,0,0,1,314,84.72C317.79,81.22,324.69,83.73,325.39,88.22Z" fill="#f4a28c"/><polygon points="312.43 93.29 311.46 117.7 324.95 117.28 320.24 99.69 312.43 93.29" fill="#f4a28c"/><path d="M323.59,88.75a29.92,29.92,0,0,1-6.89.28,6.19,6.19,0,0,1,.8,6.77,5.05,5.05,0,0,1-5.83,2.73l-1-9.53a7.56,7.56,0,0,1,3-7.17,26.83,26.83,0,0,1,3-1.93c2.61-1.42,6.83-.07,9.07-2.21a1.8,1.8,0,0,1,3,.83c.77,2.85.79,7.46-2.93,9.5A7.13,7.13,0,0,1,323.59,88.75Z" fill="#24285b"/><path d="M318.27,95.49s-.39-2.84-2.51-2.37-1.57,4.58,1.39,4.62Z" fill="#f4a28c"/><path d="M326.1,92.87l2.4,2.6a1.19,1.19,0,0,1-.52,2l-2.76.87Z" fill="#f4a28c"/><path d="M321.43,103.49a8.86,8.86,0,0,1-4.64-2.07s.72,4.42,6.11,8.22Z" fill="#ce8172" opacity="0.31"/><path d="M283.24,150.78s-.8-32.78,34.55-34.48,34.42,35.92,34.42,35.92S318.85,182.62,283.24,150.78Z" fill="#6ca2b3" class="target-color"/><circle cx="351.85" cy="149.45" r="17.52" fill="#ffd200"/><path d="M226.26,156.25a1.9,1.9,0,0,1,0-2.68l11.29-11.28a1.89,1.89,0,0,1,2.67,2.67l-11.28,11.29A1.9,1.9,0,0,1,226.26,156.25Z" fill="#fff"/><path d="M237.73,156.43l-11.28-11.28a1.89,1.89,0,0,1,2.67-2.68l11.29,11.29a1.89,1.89,0,0,1-2.68,2.67Z" fill="#fff"/><polyline points="108.12 149.84 111.68 154.42 119.25 144.11" fill="none" stroke="#fff" stroke-linecap="round" stroke-linejoin="round" stroke-width="4"/><path d="M351.87,140.62a6.79,6.79,0,0,1,4.61,1.51,4.89,4.89,0,0,1,1.7,3.8,5.35,5.35,0,0,1-.57,2.67,4.45,4.45,0,0,1-1.28,1.66,8.62,8.62,0,0,1-1.62,1.08c-.38.23-.64.36-.74.44-1.05.64-1.62,1.23-1.62,2.23,0,.64-.2.82-.82.82h-1c-.62,0-.82-.18-.82-.82a4.58,4.58,0,0,1,2.46-4.28s1-.65,1.05-.67a7.45,7.45,0,0,0,.9-.72,4.2,4.2,0,0,0,.66-1,4.09,4.09,0,0,0,.24-1.31c0-1.57-1.16-2.62-3.21-2.62a3.63,3.63,0,0,0-3.75,2.41c-.28.64-.48.75-1.1.54l-1.23-.44a.73.73,0,0,1-.54-1.1C346.27,142,348.51,140.62,351.87,140.62Zm-.72,15.62c1.23,0,1.64.41,1.64,1.64v.23c0,1.26-.41,1.64-1.64,1.64h-.21c-1.23,0-1.64-.38-1.64-1.64v-.23c0-1.23.41-1.64,1.64-1.64Z" fill="#fff"/><rect x="42.87" y="187.49" width="76.38" height="24.85" fill="#e6e6e6"/><rect x="159.73" y="187.49" width="76.38" height="24.85" fill="#e6e6e6"/><rect x="280.75" y="187.49" width="76.38" height="24.85" fill="#e6e6e6"/></svg>